<svg id="그룹_491" data-name="그룹 491" xmlns="http://www.w3.org/2000/svg" xmlns:xlink="http://www.w3.org/1999/xlink" width="127.746" height="132" viewBox="0 0 127.746 132">
  <defs>
    <clipPath id="clip-path">
      <rect id="사각형_653" data-name="사각형 653" width="127.746" height="132" fill="#fbfafb"/>
    </clipPath>
  </defs>
  <g id="그룹_432" data-name="그룹 432" transform="translate(0 0)" clip-path="url(#clip-path)">
    <path id="패스_332" data-name="패스 332" d="M15.514,85.578a10.241,10.241,0,0,0-1.988-.506,5.541,5.541,0,0,0,3.707-3.232,4.26,4.26,0,0,0,.268-1.449,4.016,4.016,0,0,0-2.964-3.975,10.494,10.494,0,0,0-3.638-.573H.454a.455.455,0,1,0,0,.909H3.116V95.144H.454a.455.455,0,1,0,0,.909H11.337q4.515,0,6.534-2.728a5.156,5.156,0,0,0,1.044-3.134,4.606,4.606,0,0,0-3.4-4.614M7.261,76.751H9.348q3.807.069,3.84,3.909,0,2.761-1.985,3.636a4.024,4.024,0,0,1-1.686.338H7.261Zm4.849,17.954a4.755,4.755,0,0,1-2.089.438H7.261V85.578h3.032A3.666,3.666,0,0,1,14.065,88.1a5.411,5.411,0,0,1,.338,1.954q0,3.469-2.292,4.647" transform="translate(0 35.947)" fill="#fbfafb"/>
    <path id="패스_333" data-name="패스 333" d="M93.178,76.3a.457.457,0,0,1-.455.455H90.6l-.4.8,0,0-4.345,8.8h0l-.51,1.044v7.747h2.662a.455.455,0,0,1,0,.909H78.529a.452.452,0,0,1-.439-.453.457.457,0,0,1,.134-.323.454.454,0,0,1,.32-.134h2.693V87.666L75.074,76.751H73.389a.455.455,0,0,1,0-.909h8.826a.455.455,0,0,1,0,.909H79.653l5.087,9.5.149-.3.087-.174,2.316-4.662,2.165-4.364h-2.7a.455.455,0,0,1,0-.909h5.97a.456.456,0,0,1,.455.454" transform="translate(34.569 35.947)" fill="#fbfafb"/>
    <path id="패스_334" data-name="패스 334" d="M31,89.554h0Z" transform="translate(14.687 42.446)" fill="#fbfafb"/>
    <path id="패스_335" data-name="패스 335" d="M41.121,95.6a.454.454,0,0,1-.441.454H31.133a.455.455,0,0,1,0-.909h2.694V76.751H31.133a.454.454,0,1,1,0-.908H40.68a.454.454,0,0,1,0,.908H37.971V95.142H40.68a.455.455,0,0,1,.441.455" transform="translate(14.541 35.947)" fill="#fbfafb"/>
    <path id="패스_336" data-name="패스 336" d="M40.52,89.554h0Z" transform="translate(14.687 42.446)" fill="#fbfafb"/>
    <path id="패스_337" data-name="패스 337" d="M37.469,88.938Z" transform="translate(17.752 42.154)" fill="#fbfafb"/>
    <path id="패스_338" data-name="패스 338" d="M37.469,89.554Z" transform="translate(17.752 42.446)" fill="#fbfafb"/>
    <path id="패스_339" data-name="패스 339" d="M34.767,95.145H33.436l-5.268-8.692a5.767,5.767,0,0,0,4.381-3.638,5.473,5.473,0,0,0,.268-1.683,4.672,4.672,0,0,0-2.223-4.042,7.9,7.9,0,0,0-4.513-1.247H15.233a.455.455,0,0,0,0,.909h2.7V95.144h-2.7a.455.455,0,0,0,0,.909H24.78A.455.455,0,0,0,25,95.993a.46.46,0,0,0,.226-.395A.455.455,0,0,0,25,95.206a.425.425,0,0,0-.215-.06H22.072V86.823h2.156l4.6,8.321h0l.5.909h5.437a.441.441,0,0,0,.223-.065.454.454,0,0,0-.223-.842m-8.08-9.973a3.534,3.534,0,0,1-2.089.641H22.072V76.751H24.4a3.6,3.6,0,0,1,3.672,2.526,5.588,5.588,0,0,1,.336,1.953,4.542,4.542,0,0,1-1.717,3.941" transform="translate(7.005 35.947)" fill="#fbfafb"/>
    <path id="패스_340" data-name="패스 340" d="M28.345,88.937h0Z" transform="translate(13.428 42.153)" fill="#fbfafb"/>
    <path id="패스_341" data-name="패스 341" d="M28.345,89.554Z" transform="translate(13.428 42.446)" fill="#fbfafb"/>
    <path id="패스_342" data-name="패스 342" d="M78.374,95.6a.454.454,0,0,1-.439.454H68.478a.4.4,0,0,1-.06,0,.455.455,0,0,1,0-.9.4.4,0,0,1,.06,0h2.635V86.149H62.754v8.993h2.708a.455.455,0,0,1,0,.909H55.918a.455.455,0,0,1-.324-.777.478.478,0,0,1,.1-.077l.043-.021a.226.226,0,0,1,.041-.015.246.246,0,0,1,.031-.009.393.393,0,0,1,.1-.012h2.693V76.751H55.918a.454.454,0,1,1,0-.908h9.529a.454.454,0,0,1,0,.908H62.754v8.388h8.359V76.751H68.482a.478.478,0,0,1-.065,0,.454.454,0,0,1,0-.9.482.482,0,0,1,.065,0h9.435a.454.454,0,1,1,0,.908H75.256V95.142h2.678a.455.455,0,0,1,.439.455" transform="translate(26.287 35.947)" fill="#fbfafb"/>
    <rect id="사각형_652" data-name="사각형 652" width="2.635" height="0.001" transform="translate(94.766 131.089)" fill="#fbfafb"/>
    <path id="패스_343" data-name="패스 343" d="M70.713,89.554Z" transform="translate(33.509 42.446)" fill="#fbfafb"/>
    <path id="패스_344" data-name="패스 344" d="M41.674,89.554h0Z" transform="translate(19.745 42.446)" fill="#fbfafb"/>
    <path id="패스_345" data-name="패스 345" d="M56.493,76.616a8.707,8.707,0,0,0-3.84-.774H41.806a.454.454,0,1,0,0,.908H44.5V95.144H41.767a.455.455,0,0,0,0,.905h9.619a.456.456,0,0,0,.408-.452.382.382,0,0,0-.006-.071l-.006-.029-.006-.024a.339.339,0,0,0-.015-.041l-.009-.021-.015-.029-.015-.027-.016-.025a.23.23,0,0,1-.024-.029.288.288,0,0,0-.053-.05.213.213,0,0,0-.034-.028l-.007,0a.319.319,0,0,0-.038-.022.345.345,0,0,0-.057-.028l-.032-.01h0l-.034-.007a.174.174,0,0,0-.04,0h-2.74V87.161h2.829q5.691,0,7.309-3.437a5.846,5.846,0,0,0,.539-2.525,4.734,4.734,0,0,0-2.83-4.583m-5.221,9.534H48.646v-9.4h2.491q3.3,0,3.706,3.739c.024.292.032.594.032.908q0,4.482-3.6,4.751" transform="translate(19.599 35.947)" fill="#fbfafb"/>
    <path id="패스_346" data-name="패스 346" d="M48.142,89.554h0" transform="translate(22.813 42.445)" fill="#fbfafb"/>
    <path id="패스_347" data-name="패스 347" d="M48.148,88.937h0Z" transform="translate(22.806 42.153)" fill="#fbfafb"/>
    <path id="패스_348" data-name="패스 348" d="M48.573,89.386a.453.453,0,0,1-.414.452.454.454,0,0,0,.407-.452.383.383,0,0,0-.006-.071.456.456,0,0,0-.326-.368.453.453,0,0,1,.336.383c0,.018,0,.037,0,.056" transform="translate(22.826 42.158)" fill="#fbfafb"/>
    <path id="패스_349" data-name="패스 349" d="M48.142,89.554h0" transform="translate(22.813 42.445)" fill="#fbfafb"/>
    <path id="패스_350" data-name="패스 350" d="M48.219,88.937h0Z" transform="translate(22.735 42.153)" fill="#fbfafb"/>
    <path id="패스_351" data-name="패스 351" d="M48.142,88.937h0Z" transform="translate(22.816 42.153)" fill="#fbfafb"/>
    <path id="패스_352" data-name="패스 352" d="M48.142,89.553h0" transform="translate(22.816 42.445)" fill="#fbfafb"/>
    <path id="패스_353" data-name="패스 353" d="M23.84,87.271c-.047-.091-.1-.183-.144-.274l.016-.027c.041.1.085.2.128.3" transform="translate(11.231 41.221)" fill="#fbfafb"/>
    <path id="패스_354" data-name="패스 354" d="M23.84,87.271c-.047-.091-.1-.183-.144-.274l.016-.027c.041.1.085.2.128.3" transform="translate(11.231 41.221)" fill="#fbfafb"/>
    <path id="패스_355" data-name="패스 355" d="M23.84,87.271c-.047-.091-.1-.183-.144-.274l.016-.027c.041.1.085.2.128.3" transform="translate(11.231 41.221)" fill="#fbfafb"/>
    <path id="패스_356" data-name="패스 356" d="M23.712,86.97,23.7,87l.144.273c-.043-.1-.087-.2-.128-.3" transform="translate(11.231 41.221)" fill="#fbfafb"/>
    <path id="패스_357" data-name="패스 357" d="M23.712,86.97,23.7,87l.144.273c-.043-.1-.087-.2-.128-.3" transform="translate(11.231 41.221)" fill="#fbfafb"/>
    <path id="패스_358" data-name="패스 358" d="M23.84,87.271c-.047-.091-.1-.183-.144-.274l.016-.027c.041.1.085.2.128.3" transform="translate(11.231 41.221)" fill="#fbfafb"/>
    <path id="패스_359" data-name="패스 359" d="M23.84,87.271c-.047-.091-.1-.183-.144-.274l.016-.027c.041.1.085.2.128.3" transform="translate(11.231 41.221)" fill="#fbfafb"/>
    <path id="패스_360" data-name="패스 360" d="M23.712,86.97,23.7,87l.144.273c-.043-.1-.087-.2-.128-.3" transform="translate(11.231 41.221)" fill="#fbfafb"/>
    <path id="패스_361" data-name="패스 361" d="M23.84,87.271c-.047-.091-.1-.183-.144-.274l.016-.027c.041.1.085.2.128.3" transform="translate(11.231 41.221)" fill="#fbfafb"/>
    <path id="패스_362" data-name="패스 362" d="M23.84,87.271c-.047-.091-.1-.183-.144-.274l.016-.027c.041.1.085.2.128.3" transform="translate(11.231 41.221)" fill="#fbfafb"/>
    <path id="패스_363" data-name="패스 363" d="M65.524,57.97h.022c.04-.063.08-.127.118-.19-.046.063-.093.128-.14.19M22.57,95.96a4.262,4.262,0,0,0,.939.385c-.315-.125-.628-.255-.939-.385m3.5-61.728-.016.027c.049.1.1.189.147.283-.044-.1-.088-.206-.131-.31M24.754,0a4.385,4.385,0,0,1,1.163.156c.022-.052.043-.1.066-.156Zm-.115,0a4.212,4.212,0,0,0-1.411.24l-.013.04A4.333,4.333,0,0,1,24.754,0ZM40.234,11.273a.571.571,0,0,0-.035.055.665.665,0,0,1,.041-.055Z" transform="translate(10.697 0)" fill="#fbfafb"/>
    <path id="패스_364" data-name="패스 364" d="M34.571,7.648a.667.667,0,0,0-.041.055.568.568,0,0,1,.035-.055Z" transform="translate(16.366 3.625)" fill="#fbfafb"/>
    <path id="패스_365" data-name="패스 365" d="M24.547,0a4.365,4.365,0,0,0-1.539.279L23.021.24A4.212,4.212,0,0,1,24.432,0Z" transform="translate(10.905 0)" fill="#fbfafb"/>
    <path id="패스_366" data-name="패스 366" d="M25.281,0c-.024.053-.044.1-.066.156A4.385,4.385,0,0,0,24.052,0Z" transform="translate(11.4 0)" fill="#fbfafb"/>
    <path id="패스_367" data-name="패스 367" d="M21.091,37.9v.318c0-.094,0-.19,0-.284V37.9Z" transform="translate(9.995 17.964)" fill="#fbfafb"/>
    <path id="패스_368" data-name="패스 368" d="M25.083,23.534l-.149-.282.016-.028c.043.1.088.206.133.31" transform="translate(11.818 11.007)" fill="#fbfafb"/>
    <path id="패스_369" data-name="패스 369" d="M51.852,39.2c-.038.063-.078.127-.118.19h-.022c.049-.062.094-.127.14-.19" transform="translate(24.51 18.579)" fill="#fbfafb"/>
    <path id="패스_370" data-name="패스 370" d="M40.936,7.648,40.9,7.7c.013-.018.028-.035.041-.055Zm25.292,46.7h.021c.041-.062.08-.125.118-.19-.046.065-.091.128-.139.19m-45.139-2.1v.034c0,.1,0,.19,0,.284v-.318Zm5.684-21.635-.016.028c.049.094.1.187.149.282-.044-.1-.09-.206-.133-.31" transform="translate(9.995 3.625)" fill="#fbfafb"/>
    <path id="패스_371" data-name="패스 371" d="M34.571,7.648a.667.667,0,0,0-.041.055.568.568,0,0,1,.035-.055Z" transform="translate(16.366 3.625)" fill="#fbfafb"/>
    <path id="패스_372" data-name="패스 372" d="M51.852,39.2c-.038.063-.078.127-.118.19h-.022c.049-.062.094-.127.14-.19" transform="translate(24.51 18.579)" fill="#fbfafb"/>
    <path id="패스_373" data-name="패스 373" d="M44.631,73.107H25.341a4.208,4.208,0,0,1-1.129-.152h0c-.314-.124-.628-.254-.939-.385l0,0a4.256,4.256,0,0,1-2.028-2.591,4.2,4.2,0,0,1-.15-1.122V49.348q.449,1.088.958,2.149.845,1.769,1.841,3.448A44.241,44.241,0,0,0,44.631,73.107" transform="translate(9.995 23.389)" fill="#fbfafb"/>
    <path id="패스_374" data-name="패스 374" d="M21.091,37.9v.318c0-.094,0-.19,0-.284V37.9Z" transform="translate(9.995 17.964)" fill="#fbfafb"/>
    <path id="패스_375" data-name="패스 375" d="M25.083,23.534l-.149-.282.016-.028c.043.1.088.206.133.31" transform="translate(11.818 11.007)" fill="#fbfafb"/>
    <path id="패스_376" data-name="패스 376" d="M51.852,39.2c-.038.063-.078.127-.118.19h-.022c.049-.062.094-.127.14-.19" transform="translate(24.51 18.579)" fill="#fbfafb"/>
    <path id="패스_377" data-name="패스 377" d="M21.091,37.9v.318c0-.094,0-.19,0-.284V37.9Z" transform="translate(9.995 17.964)" fill="#fbfafb"/>
    <path id="패스_378" data-name="패스 378" d="M25.083,23.534l-.149-.282.016-.028c.043.1.088.206.133.31" transform="translate(11.818 11.007)" fill="#fbfafb"/>
    <path id="패스_379" data-name="패스 379" d="M66.227,46.962h.022l.118-.19c-.047.063-.093.128-.14.19M26.772,23.224l-.015.027c.049.1.1.189.147.283l-.133-.31M21.088,44.859v.034c0,.094,0,.19,0,.284v-.318Z" transform="translate(9.995 11.007)" fill="#fbfafb"/>
    <path id="패스_380" data-name="패스 380" d="M51.713,39.39h.022c.04-.063.077-.127.116-.19l-.139.19" transform="translate(24.51 18.579)" fill="#fbfafb"/>
    <path id="패스_381" data-name="패스 381" d="M34.571,7.648a.667.667,0,0,0-.041.055.568.568,0,0,1,.035-.055Z" transform="translate(16.366 3.625)" fill="#fbfafb"/>
    <path id="패스_382" data-name="패스 382" d="M51.852,39.2c-.038.063-.078.127-.118.19h-.022c.049-.062.094-.127.14-.19" transform="translate(24.51 18.579)" fill="#fbfafb"/>
    <path id="패스_383" data-name="패스 383" d="M87.71,50.792A30.477,30.477,0,0,1,85.4,62.478a44.1,44.1,0,0,1-12.148,1.7l-.469,0q-1.512-.015-3-.133a43.849,43.849,0,0,1-21.619-7.7q-.668-.462-1.316-.948A44.309,44.309,0,0,1,35.225,42.41c-.016-.029-.034-.057-.05-.086a43.8,43.8,0,0,1-4.329-10.136,44.191,44.191,0,0,0,13.5,9.641c.382.177.768.346,1.154.511A43.787,43.787,0,0,0,59.174,45.7c.125.01.251.021.376.028q1.581.115,3.193.115a43.986,43.986,0,0,0,15.406-2.767q.867-.325,1.719-.684a43.73,43.73,0,0,0,5.682-2.9,30.435,30.435,0,0,1,2.161,11.3" transform="translate(14.62 15.256)" fill="#fbfafb"/>
    <path id="패스_384" data-name="패스 384" d="M59.856,54.345h.022c.04-.063.08-.127.118-.19-.046.063-.093.128-.14.19m-25.29-46.7a.568.568,0,0,0-.035.055.667.667,0,0,1,.041-.055Z" transform="translate(16.366 3.625)" fill="#fbfafb"/>
    <path id="패스_385" data-name="패스 385" d="M25.083,23.534l-.149-.282.016-.028c.043.1.088.206.133.31" transform="translate(11.818 11.007)" fill="#fbfafb"/>
    <path id="패스_386" data-name="패스 386" d="M34.571,7.648a.667.667,0,0,0-.041.055.568.568,0,0,1,.035-.055Z" transform="translate(16.366 3.625)" fill="#fbfafb"/>
    <path id="패스_387" data-name="패스 387" d="M24.547,0a4.365,4.365,0,0,0-1.539.279L23.021.24A4.212,4.212,0,0,1,24.432,0Z" transform="translate(10.905 0)" fill="#fbfafb"/>
    <path id="패스_388" data-name="패스 388" d="M25.281,0c-.024.053-.044.1-.066.156A4.385,4.385,0,0,0,24.052,0Z" transform="translate(11.4 0)" fill="#fbfafb"/>
    <path id="패스_389" data-name="패스 389" d="M51.852,39.2c-.038.063-.078.127-.118.19h-.022c.049-.062.094-.127.14-.19" transform="translate(24.51 18.579)" fill="#fbfafb"/>
    <path id="패스_390" data-name="패스 390" d="M77.754,29.336a27.774,27.774,0,0,1-4.8,9.442,30.624,30.624,0,0,1,4.789,6.606,43.716,43.716,0,0,1-4.183,2.239q-.721.338-1.456.65a43.92,43.92,0,0,1-16.818,3.482c.04-.063.08-.125.118-.19-.046.065-.093.128-.14.19H54.9a44.224,44.224,0,0,1-10.673-1.3,43.9,43.9,0,0,0,15.11-6.937q.575-.409,1.133-.839a44.277,44.277,0,0,0,9.414-9.817q.19-.274.379-.551A43.8,43.8,0,0,0,77.3,14.392c.066-.426.125-.852.18-1.281.193.6.367,1.2.52,1.816a27.934,27.934,0,0,1-.242,14.41" transform="translate(20.96 6.214)" fill="#fbfafb"/>
    <path id="패스_391" data-name="패스 391" d="M25.863,34.231l-.016.027c.049.1.1.189.147.283-.044-.1-.088-.206-.131-.31M24.432,0a4.212,4.212,0,0,0-1.411.24l-.013.04A4.333,4.333,0,0,1,24.547,0Zm.115,0A4.385,4.385,0,0,1,25.71.156c.022-.052.043-.1.066-.156Zm15.48,11.273a.568.568,0,0,0-.035.055.663.663,0,0,1,.041-.055Z" transform="translate(10.905 0)" fill="#fbfafb"/>
    <path id="패스_392" data-name="패스 392" d="M25.083,23.534l-.149-.282.016-.028c.043.1.088.206.133.31" transform="translate(11.818 11.007)" fill="#fbfafb"/>
    <path id="패스_393" data-name="패스 393" d="M34.571,7.648a.667.667,0,0,0-.041.055.568.568,0,0,1,.035-.055Z" transform="translate(16.366 3.625)" fill="#fbfafb"/>
    <path id="패스_394" data-name="패스 394" d="M24.547,0a4.365,4.365,0,0,0-1.539.279L23.021.24A4.212,4.212,0,0,1,24.432,0Z" transform="translate(10.905 0)" fill="#fbfafb"/>
    <path id="패스_395" data-name="패스 395" d="M25.281,0c-.024.053-.044.1-.066.156A4.385,4.385,0,0,0,24.052,0Z" transform="translate(11.4 0)" fill="#fbfafb"/>
    <path id="패스_396" data-name="패스 396" d="M73.084,14.025q-.015,1.5-.131,2.982c-.047.622-.109,1.243-.183,1.856a43.816,43.816,0,0,1-5.741,17.007c-.075.127-.152.255-.228.38a44.145,44.145,0,0,1-6.928,8.773A44.053,44.053,0,0,0,61.929,31.68q0-2.052-.183-4.055h0c-.016-.17-.034-.339-.052-.509h0a43.78,43.78,0,0,0-4.053-14.421c-.091-.192-.186-.385-.279-.575A44.193,44.193,0,0,0,48.5,0h.246A28.1,28.1,0,0,1,73.084,14.025" transform="translate(22.988 0)" fill="#fbfafb"/>
    <path id="패스_397" data-name="패스 397" d="M40.936,11.273c-.013.018-.025.037-.037.055.013-.018.028-.037.043-.055ZM25.457,0A4.326,4.326,0,0,1,26.62.158c.022-.053.043-.1.066-.158Zm-.115,0a4.212,4.212,0,0,0-1.411.24l-.013.04A4.333,4.333,0,0,1,25.457,0Zm1.43,34.231-.015.027c.049.1.1.189.147.283l-.133-.31M21.088,55.866V55.9c0,.094,0,.19,0,.284v-.318Z" transform="translate(9.995 0)" fill="#fbfafb"/>
    <path id="패스_398" data-name="패스 398" d="M52.251,9.238a43.832,43.832,0,0,0-15.615,6.869q-.539.376-1.067.768a44.315,44.315,0,0,0-10.05,10.417c-.069.1-.137.2-.2.3a44.089,44.089,0,0,0-4.227,7.85V12.122c.239-.116.478-.231.716-.342.507-.239,1.02-.466,1.537-.685A43.952,43.952,0,0,1,40.466,7.646c.156,0,.314,0,.47,0-.013.018-.024.037-.035.055.013-.018.027-.037.041-.055A44.153,44.153,0,0,1,52.251,9.238" transform="translate(9.995 3.624)" fill="#fbfafb"/>
    <path id="패스_399" data-name="패스 399" d="M71.532,23.248A44.241,44.241,0,0,0,56.715,12.624c-.31-.134-.621-.268-.933-.4a43.834,43.834,0,0,0-13.064-3.15l-.239-.021q-1.718-.133-3.471-.134A43.93,43.93,0,0,0,23.6,11.693q-.906.338-1.8.716-.358.153-.715.31V4.253A4.26,4.26,0,0,1,23.931.238l-.013.04a4.426,4.426,0,0,1,2.7-.122c.022-.052.044-.1.066-.155H56.311a44.275,44.275,0,0,1,10.4,11.842h0c.05.083.1.17.152.256a43.8,43.8,0,0,1,4.67,11.149" transform="translate(9.995 0)" fill="#fbfafb"/>
    <path id="패스_400" data-name="패스 400" d="M88.936,72.115A30.542,30.542,0,0,1,64.2,88.546H47.961c-.167-.068-.33-.14-.5-.212a44.277,44.277,0,0,1-20.1-17.694q-.918-1.523-1.713-3.129A43.859,43.859,0,0,1,21.09,48.234v-.317h0q0-1.729.134-3.424c.031-.4.066-.808.111-1.209a43.779,43.779,0,0,1,5.423-16.976l.149.282c-.044-.1-.09-.2-.133-.31a44.246,44.246,0,0,1,7.234-9.509,44.1,44.1,0,0,0-2,13.16q0,2.288.227,4.516c.052.5.109.991.177,1.483a43.755,43.755,0,0,0,4.021,13.275c.022.046.046.093.069.14A44.267,44.267,0,0,0,48.353,64.2q.745.6,1.517,1.176a43.852,43.852,0,0,0,22.513,8.49q1.6.133,3.234.15c.158,0,.317,0,.476,0a44.049,44.049,0,0,0,12.843-1.9" transform="translate(9.995 7.949)" fill="#fbfafb"/>
  </g>
</svg>
