<svg xmlns="http://www.w3.org/2000/svg" width="46.855" height="46.82" viewBox="0 0 46.855 46.82">
  <g id="그룹_350" data-name="그룹 350" transform="translate(-372.246 -497.265)">
    <path id="패스_158" data-name="패스 158" d="M407.358,544.085H383.95a3.433,3.433,0,0,0-.391-.1,12.2,12.2,0,0,1-3.621-1.014,12.774,12.774,0,0,1-7.34-8.863c-.142-.571-.236-1.154-.352-1.732V508.973a3.566,3.566,0,0,0,.1-.393,12.031,12.031,0,0,1,1.527-4.645,12.719,12.719,0,0,1,11.546-6.659c6.825-.024,13.65,0,20.475-.011a12.564,12.564,0,0,1,6.069,1.4c4.385,2.35,6.938,6.026,7.052,11,.169,7.339.055,14.685.034,22.027a11.151,11.151,0,0,1-1.085,4.676,12.756,12.756,0,0,1-8.868,7.361C408.52,543.876,407.936,543.969,407.358,544.085Zm7.51-23.4h.018q0-5.1,0-10.195a9.563,9.563,0,0,0-.44-3.055,8.837,8.837,0,0,0-8.5-6c-6.857.039-13.715-.007-20.572.03a10.312,10.312,0,0,0-2.957.443,8.73,8.73,0,0,0-6.005,8.478c.039,6.857-.007,13.715.03,20.573a10.3,10.3,0,0,0,.442,2.957,8.733,8.733,0,0,0,8.478,6.006c6.857-.04,13.715-.015,20.573-.007a8.56,8.56,0,0,0,4.179-.959,8.33,8.33,0,0,0,4.73-7.391C414.95,527.939,414.868,524.309,414.868,520.683Z" transform="translate(0 0)" fill="#fff"/>
    <path id="패스_159" data-name="패스 159" d="M417.109,530.04a12.067,12.067,0,1,1-12.1,12.023A12.093,12.093,0,0,1,417.109,530.04Zm7.851,12.052a7.883,7.883,0,1,0-7.88,7.9A7.863,7.863,0,0,0,424.96,542.092Z" transform="translate(-21.422 -21.43)" fill="#fff"/>
    <path id="패스_160" data-name="패스 160" d="M470.425,525.946a3.056,3.056,0,0,1-3.064-3.031,3.055,3.055,0,1,1,3.064,3.031Z" transform="translate(-62.191 -14.768)" fill="#fff"/>
  </g>
</svg>
